<svg width="16" height="15" viewBox="0 0 16 15" fill="none" xmlns="http://www.w3.org/2000/svg">
<path d="M10.6665 13.125V11.875C10.6665 11.212 10.3856 10.5761 9.88546 10.1072C9.38536 9.63839 8.70708 9.375 7.99984 9.375H3.33317C2.62593 9.375 1.94765 9.63839 1.44755 10.1072C0.947456 10.5761 0.666504 11.212 0.666504 11.875V13.125" stroke="black" stroke-linecap="round" stroke-linejoin="round"/>
<path d="M5.66667 6.875C7.13943 6.875 8.33333 5.75571 8.33333 4.375C8.33333 2.99429 7.13943 1.875 5.66667 1.875C4.19391 1.875 3 2.99429 3 4.375C3 5.75571 4.19391 6.875 5.66667 6.875Z" stroke="black" stroke-linecap="round" stroke-linejoin="round"/>
<path d="M11.3335 6.875L12.6668 8.125L15.3335 5.625" stroke="black" stroke-linecap="round" stroke-linejoin="round"/>
</svg>
